<?xml version="1.0" encoding="UTF-8" standalone="no"?>
<svg width="250" height="500" viewBox="0 0 250 500" fill="none" xmlns="http://www.w3.org/2000/svg">
  <!-- Phone frame -->
  <rect x="0" y="0" width="250" height="500" rx="20" fill="#333333"/>
  <rect x="8" y="8" width="234" height="484" rx="15" fill="#ffffff"/>
  
  <!-- App header -->
  <rect x="8" y="8" width="234" height="50" rx="15" fill="#4a6fa5"/>
  <text x="30" y="40" font-family="Arial" font-size="20" font-weight="bold" fill="white">Notes</text>
  <circle cx="210" cy="33" r="12" fill="white" fill-opacity="0.3"/>
  
  <!-- Notes list -->
  <rect x="20" y="70" width="210" height="40" rx="5" fill="#f5f7fa"/>
  <rect x="30" y="80" width="150" height="10" rx="5" fill="#333333"/>
  <rect x="30" y="95" width="100" height="5" rx="2.5" fill="#6c757d"/>
  
  <rect x="20" y="120" width="210" height="40" rx="5" fill="#f5f7fa"/>
  <rect x="30" y="130" width="150" height="10" rx="5" fill="#333333"/>
  <rect x="30" y="145" width="100" height="5" rx="2.5" fill="#6c757d"/>
  
  <rect x="20" y="170" width="210" height="40" rx="5" fill="#4a6fa5" fill-opacity="0.1"/>
  <rect x="30" y="180" width="150" height="10" rx="5" fill="#4a6fa5"/>
  <rect x="30" y="195" width="100" height="5" rx="2.5" fill="#6c757d"/>
  
  <rect x="20" y="220" width="210" height="40" rx="5" fill="#f5f7fa"/>
  <rect x="30" y="230" width="150" height="10" rx="5" fill="#333333"/>
  <rect x="30" y="245" width="100" height="5" rx="2.5" fill="#6c757d"/>
  
  <rect x="20" y="270" width="210" height="40" rx="5" fill="#f5f7fa"/>
  <rect x="30" y="280" width="150" height="10" rx="5" fill="#333333"/>
  <rect x="30" y="295" width="100" height="5" rx="2.5" fill="#6c757d"/>
  
  <!-- Note editor -->
  <rect x="20" y="330" width="210" height="150" rx="10" fill="#f5f7fa"/>
  <rect x="30" y="340" width="190" height="15" rx="5" fill="#4a6fa5"/>
  <rect x="30" y="365" width="190" height="5" rx="2.5" fill="#6c757d"/>
  <rect x="30" y="380" width="190" height="5" rx="2.5" fill="#6c757d"/>
  <rect x="30" y="395" width="190" height="5" rx="2.5" fill="#6c757d"/>
  <rect x="30" y="410" width="190" height="5" rx="2.5" fill="#6c757d"/>
  <rect x="30" y="425" width="100" height="5" rx="2.5" fill="#6c757d"/>
  <rect x="30" y="450" width="60" height="20" rx="10" fill="#4a6fa5"/>
</svg>
