<?xml version="1.0" encoding="UTF-8" standalone="no"?>
<svg width="250" height="500" viewBox="0 0 250 500" fill="none" xmlns="http://www.w3.org/2000/svg">
  <!-- Phone frame -->
  <rect x="0" y="0" width="250" height="500" rx="20" fill="#333333"/>
  <rect x="8" y="8" width="234" height="484" rx="15" fill="#ffffff"/>
  
  <!-- App header -->
  <rect x="8" y="8" width="234" height="50" rx="15" fill="#4a6fa5"/>
  <text x="30" y="40" font-family="Arial" font-size="20" font-weight="bold" fill="white">Profile</text>
  <circle cx="210" cy="33" r="12" fill="white" fill-opacity="0.3"/>
  
  <!-- User info -->
  <circle cx="125" cy="100" r="40" fill="#f5f7fa"/>
  <circle cx="125" cy="90" r="15" fill="#6c757d"/>
  <rect x="110" y="110" width="30" height="15" rx="7.5" fill="#6c757d"/>
  
  <text x="85" y="150" font-family="Arial" font-size="16" font-weight="bold" fill="#333333">Student Name</text>
  <text x="95" y="170" font-family="Arial" font-size="12" fill="#6c757d">student@email.com</text>
  
  <!-- Stats -->
  <rect x="20" y="200" width="210" height="80" rx="10" fill="#f5f7fa"/>
  <text x="30" y="220" font-family="Arial" font-size="14" font-weight="bold" fill="#333333">Study Stats</text>
  
  <rect x="30" y="240" width="40" height="30" rx="5" fill="#4a6fa5" fill-opacity="0.1"/>
  <text x="40" y="260" font-family="Arial" font-size="14" font-weight="bold" fill="#4a6fa5">42</text>
  <text x="35" y="275" font-family="Arial" font-size="10" fill="#6c757d">Notes</text>
  
  <rect x="90" y="240" width="40" height="30" rx="5" fill="#4a6fa5" fill-opacity="0.1"/>
  <text x="100" y="260" font-family="Arial" font-size="14" font-weight="bold" fill="#4a6fa5">78</text>
  <text x="85" y="275" font-family="Arial" font-size="10" fill="#6c757d">Flashcards</text>
  
  <rect x="150" y="240" width="40" height="30" rx="5" fill="#4a6fa5" fill-opacity="0.1"/>
  <text x="160" y="260" font-family="Arial" font-size="14" font-weight="bold" fill="#4a6fa5">23</text>
  <text x="160" y="275" font-family="Arial" font-size="10" fill="#6c757d">MCQs</text>
  
  <!-- Recent activity -->
  <text x="20" y="310" font-family="Arial" font-size="14" font-weight="bold" fill="#333333">Recent Activity</text>
  
  <rect x="20" y="320" width="210" height="40" rx="5" fill="#f5f7fa"/>
  <rect x="30" y="330" width="150" height="10" rx="5" fill="#333333"/>
  <rect x="30" y="345" width="100" height="5" rx="2.5" fill="#6c757d"/>
  
  <rect x="20" y="370" width="210" height="40" rx="5" fill="#f5f7fa"/>
  <rect x="30" y="380" width="150" height="10" rx="5" fill="#333333"/>
  <rect x="30" y="395" width="100" height="5" rx="2.5" fill="#6c757d"/>
  
  <rect x="20" y="420" width="210" height="40" rx="5" fill="#f5f7fa"/>
  <rect x="30" y="430" width="150" height="10" rx="5" fill="#333333"/>
  <rect x="30" y="445" width="100" height="5" rx="2.5" fill="#6c757d"/>
</svg>
