<?xml version="1.0" encoding="UTF-8" standalone="no"?>
<svg width="250" height="500" viewBox="0 0 250 500" fill="none" xmlns="http://www.w3.org/2000/svg">
  <!-- Phone frame -->
  <rect x="0" y="0" width="250" height="500" rx="20" fill="#333333"/>
  <rect x="8" y="8" width="234" height="484" rx="15" fill="#ffffff"/>
  
  <!-- App header -->
  <rect x="8" y="8" width="234" height="50" rx="15" fill="#4a6fa5"/>
  <text x="30" y="40" font-family="Arial" font-size="20" font-weight="bold" fill="white">MCQs</text>
  <circle cx="210" cy="33" r="12" fill="white" fill-opacity="0.3"/>
  
  <!-- Question -->
  <rect x="20" y="70" width="210" height="100" rx="10" fill="#f5f7fa"/>
  <text x="30" y="95" font-family="Arial" font-size="14" font-weight="bold" fill="#333333">Question 1 of 10</text>
  <rect x="30" y="110" width="190" height="10" rx="5" fill="#333333"/>
  <rect x="30" y="130" width="150" height="10" rx="5" fill="#333333"/>
  <rect x="30" y="150" width="100" height="10" rx="5" fill="#333333"/>
  
  <!-- Options -->
  <rect x="20" y="190" width="210" height="50" rx="10" fill="#f5f7fa"/>
  <circle cx="35" cy="215" r="10" fill="#ffffff" stroke="#4a6fa5" stroke-width="2"/>
  <rect x="55" y="210" width="160" height="10" rx="5" fill="#333333"/>
  
  <rect x="20" y="250" width="210" height="50" rx="10" fill="#4a6fa5" fill-opacity="0.1"/>
  <circle cx="35" cy="275" r="10" fill="#4a6fa5"/>
  <rect x="55" y="270" width="160" height="10" rx="5" fill="#4a6fa5"/>
  
  <rect x="20" y="310" width="210" height="50" rx="10" fill="#f5f7fa"/>
  <circle cx="35" cy="335" r="10" fill="#ffffff" stroke="#4a6fa5" stroke-width="2"/>
  <rect x="55" y="330" width="160" height="10" rx="5" fill="#333333"/>
  
  <rect x="20" y="370" width="210" height="50" rx="10" fill="#f5f7fa"/>
  <circle cx="35" cy="395" r="10" fill="#ffffff" stroke="#4a6fa5" stroke-width="2"/>
  <rect x="55" y="390" width="160" height="10" rx="5" fill="#333333"/>
  
  <!-- Navigation buttons -->
  <rect x="20" y="440" width="100" height="40" rx="20" fill="#6c757d"/>
  <text x="50" y="465" font-family="Arial" font-size="14" font-weight="bold" fill="white">Previous</text>
  
  <rect x="130" y="440" width="100" height="40" rx="20" fill="#4a6fa5"/>
  <text x="170" y="465" font-family="Arial" font-size="14" font-weight="bold" fill="white">Next</text>
</svg>
